<svg version="1.1" id="Layer_1" xmlns="http://www.w3.org/2000/svg" xmlns:xlink="http://www.w3.org/1999/xlink" x="0px" y="0px"
	 width="100%" viewBox="0 0 333 245" enable-background="new 0 0 333 245" xml:space="preserve">
<path fill="#010000" opacity="1.000000" stroke="none" 
	d="
M233.000000,246.000000 
	C155.333359,246.000000 78.166710,246.000000 1.000052,246.000000 
	C1.000035,164.333374 1.000035,82.666763 1.000017,1.000107 
	C111.999916,1.000071 222.999832,1.000071 333.999817,1.000036 
	C333.999878,82.666557 333.999878,164.333115 333.999939,245.999847 
	C300.500000,246.000000 267.000000,246.000000 233.000000,246.000000 
M155.295395,201.325424 
	C155.612976,201.515182 155.930557,201.704956 156.760086,202.097351 
	C157.208679,202.663269 157.657272,203.229187 158.100449,204.526810 
	C159.998734,206.937469 161.545227,209.828293 163.929749,211.575226 
	C165.317642,212.592026 168.703949,212.625229 170.034058,211.599960 
	C172.513885,209.688522 174.149399,206.681686 176.806946,203.966400 
	C179.779907,201.824799 183.178024,200.084229 185.646790,197.467026 
	C193.319839,189.332596 200.542313,180.774460 208.159088,172.584808 
	C210.352539,170.226395 213.073074,168.135498 215.937042,166.679260 
	C219.588852,164.822418 221.222641,161.913544 219.991562,157.332550 
	C220.138687,157.066605 220.362213,156.908890 221.427811,156.847809 
	C221.894943,156.082550 222.362061,155.317307 222.904068,154.019333 
	C223.001892,153.674301 223.099716,153.329285 223.691574,152.325485 
	C223.793839,151.675110 223.985199,151.024796 223.985535,150.374374 
	C224.001282,120.503304 224.010818,90.632217 223.964874,60.761215 
	C223.962936,59.510548 223.426147,58.260700 222.992935,56.353405 
	C222.871658,55.496063 222.750397,54.638721 222.538498,53.140602 
	C218.673874,56.351601 215.308929,59.147434 211.332367,62.084400 
	C210.384552,62.895851 209.436752,63.707302 207.900070,64.840492 
	C204.568512,67.527390 201.236938,70.214287 197.280930,73.035164 
	C196.186523,74.021439 195.092117,75.007713 193.369507,76.158012 
	C192.073334,77.281769 190.777176,78.405518 188.840668,79.744591 
	C185.142456,82.574852 181.249954,85.193909 177.836563,88.333794 
	C176.361435,89.690735 175.084061,92.115547 175.064377,94.068848 
	C174.883224,112.051544 174.997559,130.037231 174.687698,148.473343 
	C174.759277,149.381729 174.830856,150.290131 174.768524,151.659637 
	C174.692459,151.971100 174.662003,152.286957 174.054871,152.890564 
	C167.346451,158.988983 167.347946,158.987396 160.703888,152.717911 
	C160.472870,152.499908 160.149048,152.380310 159.718903,151.455887 
	C159.580215,150.959320 159.441544,150.462753 159.636551,149.235367 
	C159.507141,147.418106 159.377716,145.600861 159.327713,142.877380 
	C159.450470,129.909210 159.573227,116.941040 159.964783,103.182182 
	C159.886932,101.804214 159.809097,100.426254 159.821045,98.160927 
	C160.953674,92.439568 158.726135,88.728317 153.823837,85.453728 
	C146.115479,80.304779 138.985046,74.292137 131.594940,68.664848 
	C124.981918,63.629288 118.348671,58.620266 111.490425,53.422237 
	C111.200401,54.729271 111.057861,55.371639 110.367813,56.635254 
	C110.244698,65.364235 110.050896,74.093170 110.044724,82.822235 
	C110.043037,85.212273 110.604004,87.602715 111.082939,90.909279 
	C111.019531,95.275291 110.956116,99.641304 110.437805,104.391304 
	C110.587158,105.258179 110.736511,106.125046 111.042732,107.659767 
	C110.988319,108.110573 110.933907,108.561386 110.346581,109.644463 
	C110.233986,124.080254 110.074570,138.516159 110.114151,152.951538 
	C110.116791,153.914139 111.629356,154.872589 112.801315,155.997894 
	C113.018425,156.180557 113.129936,156.413727 113.068626,157.526031 
	C113.054962,161.565308 115.633842,163.242096 118.658714,165.594971 
	C123.930969,169.695969 127.965538,175.357574 132.761154,180.121124 
	C134.136536,181.487305 136.344864,182.014908 138.693527,183.133896 
	C139.142334,183.720093 139.591125,184.306290 140.236816,185.382492 
	C140.525009,185.571228 140.813187,185.759979 141.560974,186.102722 
	C141.870804,186.277893 142.033859,186.543259 142.018661,187.676743 
	C143.159668,188.585693 144.300659,189.494644 145.508331,190.502502 
	C145.508331,190.502502 145.600143,190.578644 145.280228,191.294388 
	C146.343857,195.023727 147.470566,198.684204 152.839691,198.174240 
	C152.839691,198.174240 152.967499,198.460251 152.501587,199.125793 
	C153.403625,199.688370 154.305664,200.250961 155.113602,200.894867 
	C155.113602,200.894867 155.138901,200.773087 155.295395,201.325424 
M182.041565,55.578617 
	C173.660751,52.612076 168.160400,46.816380 165.432190,37.496647 
	C162.410355,48.744713 155.024292,54.222359 143.864090,57.240440 
	C156.902451,60.088779 163.486679,67.458588 165.648727,79.206215 
	C167.287247,68.759666 171.983505,62.747654 181.225403,58.881279 
	C182.427551,58.378357 185.479935,58.453556 182.041565,55.578617 
z"/>
<path fill="#E2A722" opacity="1.000000" stroke="none" 
	d="
M110.879486,109.012192 
	C110.933907,108.561386 110.988319,108.110573 111.069107,106.959808 
	C111.027885,105.509010 110.960289,104.758163 110.892700,104.007317 
	C110.956116,99.641304 111.019531,95.275291 111.097206,89.992386 
	C111.046089,78.054993 110.980713,67.034500 110.915329,56.014004 
	C111.057861,55.371639 111.200401,54.729271 111.490425,53.422237 
	C118.348671,58.620266 124.981918,63.629288 131.594940,68.664848 
	C138.985046,74.292137 146.115479,80.304779 153.823837,85.453728 
	C158.726135,88.728317 160.953674,92.439568 159.565384,98.854187 
	C159.438477,101.022583 159.567230,102.497726 159.695984,103.972870 
	C159.573227,116.941040 159.450470,129.909210 159.169464,143.719025 
	C159.108429,146.362503 159.205643,148.164337 159.302856,149.966187 
	C159.441544,150.462753 159.580215,150.959320 159.751343,152.137726 
	C159.567490,153.554382 159.351181,154.289200 158.857025,155.010834 
	C158.394730,154.990723 158.210266,154.983749 158.020203,154.630005 
	C157.351135,153.179657 156.687653,152.076050 156.019547,150.544128 
	C156.648102,144.416977 157.281281,138.718155 157.935776,132.549957 
	C157.967545,121.609886 157.991440,111.139183 157.983566,100.668495 
	C157.978500,93.918137 156.976486,87.769028 148.930878,85.908394 
	C148.155655,85.729118 147.399231,85.219490 146.768982,84.699646 
	C136.648300,76.351532 126.549530,67.976837 116.445778,59.608189 
	C115.694359,59.927284 114.942940,60.246384 114.191521,60.565483 
	C113.762901,73.361176 114.090797,86.189102 113.985374,99.462021 
	C113.982475,103.951065 113.982689,107.976807 113.979599,112.471031 
	C113.891953,122.713966 113.836693,132.488800 113.710747,142.262695 
	C113.649521,147.014069 111.159073,151.984329 117.163101,155.637527 
	C120.430725,157.625748 122.335312,161.739655 125.182777,164.563995 
	C128.243103,167.599472 131.687744,170.247482 134.965652,173.443481 
	C135.249069,174.917419 135.188370,176.337845 135.868866,177.055405 
	C140.818069,182.274292 145.815247,187.459229 151.049301,192.387177 
	C152.158401,193.431412 154.446640,193.964676 155.922745,193.611069 
	C156.870407,193.384033 157.422623,191.140915 157.972458,189.731430 
	C158.431641,188.554321 158.629791,187.275375 158.983963,186.504120 
	C159.067795,191.952530 159.111221,196.938354 159.104462,202.230499 
	C159.013107,202.945847 158.971939,203.354858 158.725067,203.785400 
	C158.519363,203.806915 158.105881,203.795090 158.105881,203.795090 
	C157.657272,203.229187 157.208679,202.663269 156.405518,201.733170 
	C155.746918,201.170349 155.442917,200.971725 155.138901,200.773087 
	C155.138901,200.773087 155.113602,200.894867 155.067474,200.584991 
	C154.336716,199.670166 153.652115,199.065216 152.967499,198.460251 
	C152.967499,198.460251 152.839691,198.174240 152.605301,197.807632 
	C150.113983,195.153564 147.857056,192.866104 145.600143,190.578644 
	C145.600143,190.578644 145.508331,190.502502 145.331253,190.190994 
	C144.119492,188.885941 143.084808,187.892380 142.050125,186.898819 
	C142.033859,186.543259 141.870804,186.277893 141.247589,185.766449 
	C140.636124,185.250946 140.338013,185.071716 140.039917,184.892487 
	C139.591125,184.306290 139.142334,183.720093 138.320312,182.708130 
	C129.676697,173.754028 121.406273,165.225708 113.135849,156.697403 
	C113.129936,156.413727 113.018425,156.180557 112.422531,155.541306 
	C111.716072,153.171585 111.123375,151.261215 111.103302,149.344864 
	C110.962540,135.901337 110.939903,122.456566 110.879486,109.012192 
z"/>
<path fill="#F6F6F6" opacity="1.000000" stroke="none" 
	d="
M182.393448,55.709915 
	C185.479935,58.453556 182.427551,58.378357 181.225403,58.881279 
	C171.983505,62.747654 167.287247,68.759666 165.648727,79.206215 
	C163.486679,67.458588 156.902451,60.088779 143.864090,57.240440 
	C155.024292,54.222359 162.410355,48.744713 165.432190,37.496647 
	C168.160400,46.816380 173.660751,52.612076 182.393448,55.709915 
z"/>
<path fill="#A16908" opacity="1.000000" stroke="none" 
	d="
M159.154663,201.924179 
	C159.111221,196.938354 159.067795,191.952530 159.013031,186.044434 
	C158.993561,182.066727 158.985443,179.011261 159.005920,175.722443 
	C159.034546,175.489059 159.014557,175.019211 159.038864,174.567902 
	C159.047989,171.406479 159.032806,168.696335 159.254929,165.785507 
	C159.320129,164.402985 159.148041,163.221161 158.998520,161.600555 
	C159.059021,159.115860 159.096954,157.069931 159.134888,155.024002 
	C159.351181,154.289200 159.567490,153.554382 159.826126,152.517212 
	C160.149048,152.380310 160.472870,152.499908 160.703888,152.717911 
	C167.347946,158.987396 167.346451,158.988983 174.538757,153.053558 
	C175.097702,153.436417 175.172760,153.656296 175.182159,154.356262 
	C175.037643,170.542099 174.958771,186.247849 174.637054,201.862030 
	C172.711075,201.456116 171.027924,201.141754 169.873596,200.926163 
	C171.467758,197.463699 173.468872,194.942307 173.666809,192.286499 
	C174.018784,187.563690 173.469391,182.735641 172.878174,178.003952 
	C172.702698,176.599625 170.881485,174.161743 170.235931,174.291687 
	C168.423798,174.656448 166.116333,175.722855 165.299927,177.219391 
	C163.552567,180.422363 162.399033,184.010086 161.435120,187.557816 
	C160.816391,189.835159 161.102493,192.342590 160.738785,194.709335 
	C160.365540,197.138062 159.695053,199.521133 159.154663,201.924179 
z"/>
<path fill="#170803" opacity="1.000000" stroke="none" 
	d="
M219.878326,157.738754 
	C221.222641,161.913544 219.588852,164.822418 215.937042,166.679260 
	C213.073074,168.135498 210.352539,170.226395 208.159088,172.584808 
	C200.542313,180.774460 193.319839,189.332596 185.646790,197.467026 
	C183.178024,200.084229 179.779907,201.824799 176.421906,204.000809 
	C176.036880,204.035217 175.940216,203.940643 175.981110,203.703522 
	C176.022018,203.466385 176.044266,202.985641 176.304138,202.786163 
	C184.097626,194.570831 191.631241,186.555008 199.452911,178.401047 
	C199.919434,177.888519 200.097900,177.514130 200.213440,177.157745 
	C200.150497,177.175751 200.233200,177.277237 200.524994,177.191010 
	C201.306076,176.483154 201.795364,175.861526 202.239777,175.207428 
	C202.194901,175.174942 202.197128,175.285721 202.462982,175.197189 
	C202.906799,174.791534 203.084747,174.474411 203.198700,174.147690 
	C203.134705,174.138077 203.167175,174.263367 203.440308,174.185135 
	C203.895111,173.788986 204.076782,173.471085 204.202042,173.148071 
	C204.145615,173.142944 204.213806,173.233414 204.512589,173.112030 
	C205.920563,171.689194 207.029770,170.387741 208.098938,169.074219 
	C208.058884,169.062164 208.061417,169.145767 208.328979,169.064575 
	C208.761322,168.662018 208.926102,168.340668 209.054306,168.018707 
	C209.017746,168.018112 209.045547,168.085739 209.356171,167.956329 
	C212.245041,164.987686 214.823288,162.148453 217.423569,159.311462 
	C217.445587,159.313736 217.481415,159.340973 217.748840,159.223999 
	C218.636963,158.650925 219.257645,158.194839 219.878326,157.738754 
z"/>
<path fill="#D7A73D" opacity="1.000000" stroke="none" 
	d="
M211.943970,61.943268 
	C215.308929,59.147434 218.673874,56.351601 222.538498,53.140602 
	C222.750397,54.638721 222.871658,55.496063 222.984421,57.143867 
	C222.991272,62.579460 223.011002,67.224586 223.021301,71.869728 
	C223.081268,98.907906 223.139023,125.946091 223.197540,152.984268 
	C223.099716,153.329285 223.001892,153.674301 222.605286,154.396698 
	C221.975967,154.951370 221.645432,155.128693 221.200531,155.194214 
	C221.086166,155.082397 220.858215,154.858002 220.960220,154.462982 
	C221.373093,152.629059 221.948227,151.190933 221.952560,149.751099 
	C221.984467,139.162201 221.902283,128.572968 221.894501,117.588142 
	C221.912140,116.133446 221.891296,115.074432 221.890961,113.721161 
	C221.633438,112.939003 221.355423,112.451103 221.071777,111.570175 
	C221.061615,110.131226 221.057098,109.085304 221.322906,107.721245 
	C221.593201,90.820335 221.593201,74.237564 221.593201,57.313030 
	C217.955673,59.242203 215.104843,60.754143 212.176575,62.185314 
	C212.099136,62.104542 211.943970,61.943264 211.943970,61.943268 
z"/>
<path fill="#D7A73D" opacity="1.000000" stroke="none" 
	d="
M175.247803,153.876160 
	C175.172760,153.656296 175.097702,153.436417 174.849884,152.911865 
	C174.662003,152.286957 174.692459,151.971100 174.951248,151.039886 
	C175.097946,149.620773 175.061920,148.821411 175.025879,148.022034 
	C174.997559,130.037231 174.883224,112.051544 175.064377,94.068848 
	C175.084061,92.115547 176.361435,89.690735 177.836563,88.333794 
	C181.249954,85.193909 185.142456,82.574852 189.295105,79.762650 
	C189.749557,79.780716 190.021606,80.028358 189.872467,80.330132 
	C188.012512,82.152748 186.211533,83.584938 184.610519,85.213707 
	C181.678391,88.196655 176.584671,91.166611 176.403351,94.369087 
	C175.691650,106.938515 176.775360,119.597404 176.725815,132.221237 
	C176.697479,139.441360 175.770294,146.657974 175.247803,153.876160 
z"/>
<path fill="#170803" opacity="1.000000" stroke="none" 
	d="
M223.444550,152.654877 
	C223.139023,125.946091 223.081268,98.907906 223.021301,71.869728 
	C223.011002,67.224586 222.991272,62.579460 223.057220,57.472397 
	C223.426147,58.260700 223.962936,59.510548 223.964874,60.761215 
	C224.010818,90.632217 224.001282,120.503304 223.985535,150.374374 
	C223.985199,151.024796 223.793839,151.675110 223.444550,152.654877 
z"/>
<path fill="#170803" opacity="1.000000" stroke="none" 
	d="
M113.102234,157.111725 
	C121.406273,165.225708 129.676697,173.754028 138.059204,182.604675 
	C136.344864,182.014908 134.136536,181.487305 132.761154,180.121124 
	C127.965538,175.357574 123.930969,169.695969 118.658714,165.594971 
	C115.633842,163.242096 113.054962,161.565308 113.102234,157.111725 
z"/>
<path fill="#170803" opacity="1.000000" stroke="none" 
	d="
M158.103165,204.160950 
	C158.105881,203.795090 158.519363,203.806915 158.972595,204.027802 
	C161.656387,206.879868 163.886948,209.511063 165.996796,211.999863 
	C170.100906,208.673447 173.020554,206.307037 175.940216,203.940643 
	C175.940216,203.940643 176.036880,204.035217 176.086594,204.082977 
	C174.149399,206.681686 172.513885,209.688522 170.034058,211.599960 
	C168.703949,212.625229 165.317642,212.592026 163.929749,211.575226 
	C161.545227,209.828293 159.998734,206.937469 158.103165,204.160950 
z"/>
<path fill="#170803" opacity="1.000000" stroke="none" 
	d="
M110.613037,109.328323 
	C110.939903,122.456566 110.962540,135.901337 111.103302,149.344864 
	C111.123375,151.261215 111.716072,153.171585 112.241699,155.458847 
	C111.629356,154.872589 110.116791,153.914139 110.114151,152.951538 
	C110.074570,138.516159 110.233986,124.080254 110.613037,109.328323 
z"/>
<path fill="#170803" opacity="1.000000" stroke="none" 
	d="
M110.641571,56.324631 
	C110.980713,67.034500 111.046089,78.054993 111.009125,89.534225 
	C110.604004,87.602715 110.043037,85.212273 110.044724,82.822235 
	C110.050896,74.093170 110.244698,65.364235 110.641571,56.324631 
z"/>
<path fill="#D7A73D" opacity="1.000000" stroke="none" 
	d="
M197.905380,72.901184 
	C201.236938,70.214287 204.568512,67.527390 208.333145,64.813545 
	C208.766220,64.786598 209.048294,65.049393 208.973999,65.378250 
	C205.336929,68.212860 201.774155,70.718605 198.134918,73.143524 
	C198.058472,73.062691 197.905380,72.901184 197.905380,72.901184 
z"/>
<path fill="#170803" opacity="1.000000" stroke="none" 
	d="
M145.440186,190.936523 
	C147.857056,192.866104 150.113983,195.153564 152.479416,197.714417 
	C147.470566,198.684204 146.343857,195.023727 145.440186,190.936523 
z"/>
<path fill="#D7A73D" opacity="1.000000" stroke="none" 
	d="
M189.615280,79.654999 
	C190.777176,78.405518 192.073334,77.281769 193.740723,76.138351 
	C194.111938,76.118683 194.227097,76.242531 194.110535,76.549278 
	C192.669846,77.913467 191.345734,78.970917 190.021606,80.028358 
	C190.021606,80.028358 189.749557,79.780716 189.615280,79.654999 
z"/>
<path fill="#D7A73D" opacity="1.000000" stroke="none" 
	d="
M219.934937,157.535645 
	C219.257645,158.194839 218.636963,158.650925 217.632767,158.877228 
	C218.452255,157.384308 219.655243,156.121155 220.858215,154.858002 
	C220.858215,154.858002 221.086166,155.082397 221.107635,155.460663 
	C220.973450,156.179077 220.817780,156.519241 220.662109,156.859390 
	C220.362213,156.908890 220.138687,157.066605 219.934937,157.535645 
z"/>
<path fill="#D7A73D" opacity="1.000000" stroke="none" 
	d="
M194.054825,76.056335 
	C195.092117,75.007713 196.186523,74.021439 197.593155,72.968170 
	C197.905380,72.901184 198.058472,73.062691 198.020584,73.457748 
	C196.730835,74.649391 195.478973,75.445961 194.227097,76.242538 
	C194.227097,76.242531 194.111938,76.118683 194.054825,76.056335 
z"/>
<path fill="#170803" opacity="1.000000" stroke="none" 
	d="
M142.034393,187.287781 
	C143.084808,187.892380 144.119492,188.885941 145.297913,190.141541 
	C144.300659,189.494644 143.159668,188.585693 142.034393,187.287781 
z"/>
<path fill="#D7A73D" opacity="1.000000" stroke="none" 
	d="
M208.627579,64.652679 
	C209.436752,63.707302 210.384552,62.895851 211.638168,62.013832 
	C211.943970,61.943264 212.099136,62.104542 212.059479,62.485481 
	C211.029327,63.594078 210.038803,64.321732 209.048294,65.049393 
	C209.048294,65.049393 208.766220,64.786598 208.627579,64.652679 
z"/>
<path fill="#A16908" opacity="1.000000" stroke="none" 
	d="
M159.469696,149.600769 
	C159.205643,148.164337 159.108429,146.362503 159.129761,144.172119 
	C159.377716,145.600861 159.507141,147.418106 159.469696,149.600769 
z"/>
<path fill="#170803" opacity="1.000000" stroke="none" 
	d="
M152.734543,198.793030 
	C153.652115,199.065216 154.336716,199.670166 155.114517,200.544342 
	C154.305664,200.250961 153.403625,199.688370 152.734543,198.793030 
z"/>
<path fill="#A16908" opacity="1.000000" stroke="none" 
	d="
M159.830383,103.577530 
	C159.567230,102.497726 159.438477,101.022583 159.520477,99.297867 
	C159.809097,100.426254 159.886932,101.804214 159.830383,103.577530 
z"/>
<path fill="#170803" opacity="1.000000" stroke="none" 
	d="
M221.044952,156.853607 
	C220.817780,156.519241 220.973450,156.179077 221.222000,155.572479 
	C221.645432,155.128693 221.975967,154.951370 222.567856,154.663055 
	C222.362061,155.317307 221.894943,156.082550 221.044952,156.853607 
z"/>
<path fill="#A16908" opacity="1.000000" stroke="none" 
	d="
M174.856781,148.247681 
	C175.061920,148.821411 175.097946,149.620773 175.018204,150.809326 
	C174.830856,150.290131 174.759277,149.381729 174.856781,148.247681 
z"/>
<path fill="#170803" opacity="1.000000" stroke="none" 
	d="
M110.665253,104.199310 
	C110.960289,104.758163 111.027885,105.509010 110.990677,106.625885 
	C110.736511,106.125046 110.587158,105.258179 110.665253,104.199310 
z"/>
<path fill="#170803" opacity="1.000000" stroke="none" 
	d="
M140.138367,185.137482 
	C140.338013,185.071716 140.636124,185.250946 141.017792,185.689453 
	C140.813187,185.759979 140.525009,185.571228 140.138367,185.137482 
z"/>
<path fill="#170803" opacity="1.000000" stroke="none" 
	d="
M155.217148,201.049255 
	C155.442917,200.971725 155.746918,201.170349 156.149536,201.631866 
	C155.930557,201.704956 155.612976,201.515182 155.217148,201.049255 
z"/>
<path fill="#F7AE09" opacity="1.000000" stroke="none" 
	d="
M113.988495,98.998703 
	C114.090797,86.189102 113.762901,73.361176 114.191521,60.565483 
	C114.942940,60.246384 115.694359,59.927284 116.445778,59.608189 
	C126.549530,67.976837 136.648300,76.351532 146.768982,84.699646 
	C147.399231,85.219490 148.155655,85.729118 148.930878,85.908394 
	C156.976486,87.769028 157.978500,93.918137 157.983566,100.668495 
	C157.991440,111.139183 157.967545,121.609886 157.545166,132.543671 
	C150.973709,131.940170 146.295959,128.889084 143.505997,123.118561 
	C142.758072,121.571625 141.753662,120.051994 140.544418,118.842278 
	C136.321075,114.617279 131.993179,110.494133 127.623238,106.419975 
	C126.320053,105.204987 124.763031,104.257317 123.296135,103.224350 
	C121.982986,102.299667 120.035278,101.720306 119.421219,100.470779 
	C118.006622,97.592255 116.038361,98.540718 113.988495,98.998703 
M122.432022,66.487358 
	C122.432022,66.487358 122.520988,66.439125 122.432022,66.487358 
z"/>
<path fill="#F7AE08" opacity="1.000000" stroke="none" 
	d="
M134.964691,173.064560 
	C131.687744,170.247482 128.243103,167.599472 125.182777,164.563995 
	C122.335312,161.739655 120.430725,157.625748 117.163101,155.637527 
	C111.159073,151.984329 113.649521,147.014069 113.710747,142.262695 
	C113.836693,132.488800 113.891953,122.713966 114.332123,112.537018 
	C116.859718,114.352501 119.097710,116.510529 121.179176,118.810249 
	C122.492500,120.261292 123.612511,121.895462 124.743462,123.500870 
	C125.683739,124.835632 126.289970,126.476959 127.428299,127.589432 
	C135.066193,135.053909 142.723038,142.504944 150.603714,149.708740 
	C151.797806,150.800278 154.187485,150.583878 156.024155,150.972458 
	C156.687653,152.076050 157.351135,153.179657 157.692352,154.780609 
	C153.963165,156.587418 152.480682,159.027206 152.997330,162.667099 
	C153.621552,167.064758 151.669922,170.304840 148.455063,173.074112 
	C145.180878,175.894485 142.532410,175.316879 140.703461,171.424850 
	C139.149536,168.118118 141.615143,167.154251 143.546204,165.571838 
	C144.471024,164.813965 144.746368,163.263565 145.315872,162.072098 
	C143.955719,161.878006 142.354431,161.123459 141.277222,161.586945 
	C136.639542,163.582336 134.277740,168.175400 134.964691,173.064560 
z"/>
<path fill="#F9AE02" opacity="1.000000" stroke="none" 
	d="
M156.019547,150.544128 
	C154.187485,150.583878 151.797806,150.800278 150.603714,149.708740 
	C142.723038,142.504944 135.066193,135.053909 127.428299,127.589432 
	C126.289970,126.476959 125.683739,124.835632 124.743462,123.500870 
	C123.612511,121.895462 122.492500,120.261292 121.179176,118.810249 
	C119.097710,116.510529 116.859718,114.352501 114.335426,112.068527 
	C113.982689,107.976807 113.982475,103.951065 113.985374,99.462021 
	C116.038361,98.540718 118.006622,97.592255 119.421219,100.470779 
	C120.035278,101.720306 121.982986,102.299667 123.296135,103.224350 
	C124.763031,104.257317 126.320053,105.204987 127.623238,106.419975 
	C131.993179,110.494133 136.321075,114.617279 140.544418,118.842278 
	C141.753662,120.051994 142.758072,121.571625 143.505997,123.118561 
	C146.295959,128.889084 150.973709,131.940170 157.523834,133.013046 
	C157.281281,138.718155 156.648102,144.416977 156.019547,150.544128 
z"/>
<path fill="#F3AA03" opacity="1.000000" stroke="none" 
	d="
M134.965652,173.443481 
	C134.277740,168.175400 136.639542,163.582336 141.277222,161.586945 
	C142.354431,161.123459 143.955719,161.878006 145.315872,162.072098 
	C144.746368,163.263565 144.471024,164.813965 143.546204,165.571838 
	C141.615143,167.154251 139.149536,168.118118 140.703461,171.424850 
	C142.532410,175.316879 145.180878,175.894485 148.455063,173.074112 
	C151.669922,170.304840 153.621552,167.064758 152.997330,162.667099 
	C152.480682,159.027206 153.963165,156.587418 157.697937,155.127380 
	C158.210266,154.983749 158.394730,154.990723 158.857025,155.010834 
	C159.096954,157.069931 159.059021,159.115860 158.752853,161.588501 
	C158.484604,162.015228 157.992386,162.010376 157.651093,162.013428 
	C156.714142,162.378204 156.118469,162.739914 155.522797,163.101624 
	C156.347107,163.399460 157.171417,163.697296 158.023163,164.291901 
	C158.372940,165.054520 158.695282,165.520370 159.017624,165.986206 
	C159.032806,168.696335 159.047989,171.406479 158.875824,174.645691 
	C158.624542,175.274963 158.484100,175.431458 158.509460,175.465881 
	C158.642273,175.646240 158.817108,175.795639 158.977325,175.955811 
	C158.985443,179.011261 158.993561,182.066727 158.972626,185.581848 
	C158.629791,187.275375 158.431641,188.554321 157.972458,189.731430 
	C157.422623,191.140915 156.870407,193.384033 155.922745,193.611069 
	C154.446640,193.964676 152.158401,193.431412 151.049301,192.387177 
	C145.815247,187.459229 140.818069,182.274292 135.868866,177.055405 
	C135.188370,176.337845 135.249069,174.917419 134.965652,173.443481 
z"/>
<path fill="#A26B13" opacity="1.000000" stroke="none" 
	d="
M175.981110,203.703522 
	C173.020554,206.307037 170.100906,208.673447 165.996796,211.999863 
	C163.886948,209.511063 161.656387,206.879868 159.178284,204.006287 
	C158.971939,203.354858 159.013107,202.945847 159.104462,202.230499 
	C159.695053,199.521133 160.365540,197.138062 160.738785,194.709335 
	C161.102493,192.342590 160.816391,189.835159 161.435120,187.557816 
	C162.399033,184.010086 163.552567,180.422363 165.299927,177.219391 
	C166.116333,175.722855 168.423798,174.656448 170.235931,174.291687 
	C170.881485,174.161743 172.702698,176.599625 172.878174,178.003952 
	C173.469391,182.735641 174.018784,187.563690 173.666809,192.286499 
	C173.468872,194.942307 171.467758,197.463699 169.873596,200.926163 
	C171.027924,201.141754 172.711075,201.456116 174.779053,202.088867 
	C175.457336,202.600052 175.750809,202.792847 176.044266,202.985641 
	C176.044266,202.985641 176.022018,203.466385 175.981110,203.703522 
z"/>
<path fill="#F6AE0B" opacity="1.000000" stroke="none" 
	d="
M176.304138,202.786163 
	C175.750809,202.792847 175.457336,202.600052 175.021881,202.180420 
	C174.958771,186.247849 175.037643,170.542099 175.182159,154.356262 
	C175.770294,146.657974 176.697479,139.441360 176.725815,132.221237 
	C176.775360,119.597404 175.691650,106.938515 176.403351,94.369087 
	C176.584671,91.166611 181.678391,88.196655 184.610519,85.213707 
	C186.211533,83.584938 188.012512,82.152748 189.872467,80.330132 
	C191.345734,78.970917 192.669846,77.913467 194.110535,76.549286 
	C195.478973,75.445961 196.730835,74.649391 198.097031,73.538589 
	C201.774155,70.718605 205.336929,68.212860 208.973999,65.378250 
	C210.038803,64.321732 211.029327,63.594078 212.136932,62.566254 
	C215.104843,60.754143 217.955673,59.242203 221.593201,57.313030 
	C221.593201,74.237564 221.593201,90.820335 221.040955,107.461349 
	C220.329819,106.885002 220.285645,106.190025 219.989639,105.627602 
	C219.224243,104.173294 218.347702,102.777473 217.515549,101.358292 
	C216.492630,102.271805 215.432816,103.147865 214.456848,104.109047 
	C213.421127,105.129066 212.498123,106.263084 211.468567,107.289848 
	C206.113525,112.630417 199.570175,117.162445 199.477371,125.977859 
	C199.470184,126.661339 197.338135,127.821419 196.136749,127.901047 
	C192.328018,128.153473 188.490967,127.936089 184.667313,128.016174 
	C179.376190,128.127014 179.161224,129.142288 179.453033,134.332458 
	C179.755768,139.716675 178.662292,145.167923 178.377563,150.600250 
	C178.151184,154.919312 176.461960,160.756287 178.573303,163.231735 
	C181.787277,166.999969 182.569321,169.485992 180.397842,173.563629 
	C179.833267,174.623825 179.935120,176.190933 180.119049,177.469376 
	C180.683273,181.391312 185.490509,186.997055 187.298492,185.754318 
	C190.445633,183.591110 193.800888,180.738159 195.186310,177.394363 
	C195.958618,175.530319 193.044037,172.030502 191.549423,169.405365 
	C191.133575,168.674988 189.825012,168.485123 188.978439,167.962387 
	C184.158432,164.986282 183.654846,160.966217 187.625916,156.900665 
	C190.662643,153.791702 193.590576,150.545761 196.869507,147.710739 
	C202.906158,142.491333 206.496918,136.717697 201.843948,128.094467 
	C208.311752,128.806442 212.111633,125.565941 215.815140,121.799217 
	C217.440720,120.145897 219.819336,119.232956 221.856018,117.983841 
	C221.902283,128.572968 221.984467,139.162201 221.952560,149.751099 
	C221.948227,151.190933 221.373093,152.629059 220.960220,154.462982 
	C219.655243,156.121155 218.452255,157.384308 217.365341,158.994202 
	C217.481415,159.340973 217.445587,159.313736 217.060638,159.308563 
	C213.431259,161.621750 209.211273,163.092560 209.045547,168.085739 
	C209.045547,168.085739 209.017746,168.018112 208.798996,168.116913 
	C208.407303,168.525726 208.234360,168.835739 208.061417,169.145767 
	C208.061417,169.145767 208.058884,169.062164 207.721024,169.073517 
	C206.326706,170.467712 205.270264,171.850571 204.213806,173.233429 
	C204.213806,173.233414 204.145615,173.142944 203.910522,173.201447 
	C203.506027,173.594406 203.336609,173.928894 203.167175,174.263367 
	C203.167175,174.263367 203.134705,174.138077 202.908264,174.205261 
	C202.520264,174.610214 202.358688,174.947968 202.197128,175.285721 
	C202.197128,175.285721 202.194901,175.174942 201.875885,175.165466 
	C201.115646,175.863083 200.674423,176.570160 200.233200,177.277237 
	C200.233200,177.277237 200.150497,177.175751 199.895416,177.260620 
	C199.481842,177.743378 199.323349,178.141281 199.164856,178.539185 
	C191.631241,186.555008 184.097626,194.570831 176.304138,202.786163 
z"/>
<path fill="#E2A722" opacity="1.000000" stroke="none" 
	d="
M159.254929,165.785507 
	C158.695282,165.520370 158.372940,165.054520 158.027222,163.961105 
	C158.000015,162.892471 157.996201,162.451431 157.992386,162.010376 
	C157.992386,162.010376 158.484604,162.015228 158.730270,162.027283 
	C159.148041,163.221161 159.320129,164.402985 159.254929,165.785507 
z"/>
<path fill="#E2A722" opacity="1.000000" stroke="none" 
	d="
M159.005936,175.722443 
	C158.817108,175.795639 158.642273,175.646240 158.509460,175.465881 
	C158.484100,175.431458 158.624542,175.274963 158.851532,175.097000 
	C159.014557,175.019211 159.034546,175.489059 159.005936,175.722443 
z"/>
<path fill="#D7A73D" opacity="1.000000" stroke="none" 
	d="
M209.356171,167.956329 
	C209.211273,163.092560 213.431259,161.621750 217.038635,159.306305 
	C214.823288,162.148453 212.245041,164.987686 209.356171,167.956329 
z"/>
<path fill="#D7A73D" opacity="1.000000" stroke="none" 
	d="
M204.512604,173.112030 
	C205.270264,171.850571 206.326706,170.467712 207.761078,169.085571 
	C207.029770,170.387741 205.920563,171.689194 204.512604,173.112030 
z"/>
<path fill="#D7A73D" opacity="1.000000" stroke="none" 
	d="
M200.524994,177.191010 
	C200.674423,176.570160 201.115646,175.863083 201.920761,175.197968 
	C201.795364,175.861526 201.306076,176.483154 200.524994,177.191010 
z"/>
<path fill="#D7A73D" opacity="1.000000" stroke="none" 
	d="
M199.452911,178.401047 
	C199.323349,178.141281 199.481842,177.743378 199.958344,177.242615 
	C200.097900,177.514130 199.919434,177.888519 199.452911,178.401047 
z"/>
<path fill="#D7A73D" opacity="1.000000" stroke="none" 
	d="
M202.462982,175.197189 
	C202.358688,174.947968 202.520264,174.610214 202.972275,174.214874 
	C203.084747,174.474411 202.906799,174.791534 202.462982,175.197189 
z"/>
<path fill="#D7A73D" opacity="1.000000" stroke="none" 
	d="
M203.440308,174.185150 
	C203.336609,173.928894 203.506027,173.594406 203.966949,173.206558 
	C204.076782,173.471085 203.895111,173.788986 203.440308,174.185150 
z"/>
<path fill="#D7A73D" opacity="1.000000" stroke="none" 
	d="
M208.328979,169.064575 
	C208.234360,168.835739 208.407303,168.525726 208.835556,168.117508 
	C208.926102,168.340668 208.761322,168.662018 208.328979,169.064575 
z"/>
<path fill="#F8AD02" opacity="1.000000" stroke="none" 
	d="
M221.894501,117.588150 
	C219.819336,119.232956 217.440720,120.145897 215.815140,121.799217 
	C212.111633,125.565941 208.311752,128.806442 201.843948,128.094467 
	C206.496918,136.717697 202.906158,142.491333 196.869507,147.710739 
	C193.590576,150.545761 190.662643,153.791702 187.625916,156.900665 
	C183.654846,160.966217 184.158432,164.986282 188.978439,167.962387 
	C189.825012,168.485123 191.133575,168.674988 191.549423,169.405365 
	C193.044037,172.030502 195.958618,175.530319 195.186310,177.394363 
	C193.800888,180.738159 190.445633,183.591110 187.298492,185.754318 
	C185.490509,186.997055 180.683273,181.391312 180.119049,177.469376 
	C179.935120,176.190933 179.833267,174.623825 180.397842,173.563629 
	C182.569321,169.485992 181.787277,166.999969 178.573303,163.231735 
	C176.461960,160.756287 178.151184,154.919312 178.377563,150.600250 
	C178.662292,145.167923 179.755768,139.716675 179.453033,134.332458 
	C179.161224,129.142288 179.376190,128.127014 184.667313,128.016174 
	C188.490967,127.936089 192.328018,128.153473 196.136749,127.901047 
	C197.338135,127.821419 199.470184,126.661339 199.477371,125.977859 
	C199.570175,117.162445 206.113525,112.630417 211.468567,107.289848 
	C212.498123,106.263084 213.421127,105.129066 214.456848,104.109047 
	C215.432816,103.147865 216.492630,102.271805 217.515549,101.358292 
	C218.347702,102.777473 219.224243,104.173294 219.989639,105.627602 
	C220.285645,106.190025 220.329819,106.885002 220.770660,107.779480 
	C221.057098,109.085304 221.061615,110.131226 220.839386,111.734863 
	C221.031921,112.866859 221.451187,113.441147 221.870468,114.015427 
	C221.891296,115.074432 221.912140,116.133446 221.894501,117.588150 
z"/>
<path fill="#F6AE0B" opacity="1.000000" stroke="none" 
	d="
M221.890961,113.721161 
	C221.451187,113.441147 221.031921,112.866859 220.845032,112.127892 
	C221.355423,112.451103 221.633438,112.939003 221.890961,113.721161 
z"/>
<path fill="#E2A722" opacity="1.000000" stroke="none" 
	d="
M122.476501,66.463242 
	C122.520988,66.439125 122.432022,66.487358 122.476501,66.463242 
z"/>
<path fill="#F7AE08" opacity="1.000000" stroke="none" 
	d="
M157.651093,162.013428 
	C157.996201,162.451431 158.000015,162.892471 157.999786,163.664322 
	C157.171417,163.697296 156.347107,163.399460 155.522797,163.101624 
	C156.118469,162.739914 156.714142,162.378204 157.651093,162.013428 
z"/>
</svg>